<svg width="433" height="433" viewBox="0 0 433 433" fill="none" xmlns="http://www.w3.org/2000/svg">
<path d="M3.05176e-05 216.503C3.05176e-05 336.074 96.9316 433.005 216.503 433.005C336.074 433.005 433.005 336.074 433.005 216.503C433.005 96.9315 336.074 0 216.503 0C96.9316 0 3.05176e-05 96.9315 3.05176e-05 216.503ZM384.812 216.503C384.812 309.457 309.457 384.812 216.503 384.812C123.548 384.812 48.1938 309.457 48.1938 216.503C48.1938 123.548 123.548 48.1938 216.503 48.1938C309.457 48.1938 384.812 123.548 384.812 216.503Z" fill="#1B1C1E"/>
<path d="M117.303 408.942C168.342 435.251 227.741 440.208 282.433 422.722C337.126 405.236 382.633 366.74 408.942 315.702L360.832 290.902C341.1 329.181 306.97 358.053 265.951 371.167C224.931 384.282 180.382 380.564 142.103 360.832L117.303 408.942Z" fill="#30D171"/>
<path d="M23.8741 117.671C10.8954 142.968 3.02625 170.573 0.715973 198.91C-1.5943 227.248 1.69955 255.763 10.4094 282.827C19.1193 309.892 33.0747 334.976 51.4787 356.647C69.8828 378.318 92.3751 396.153 117.671 409.131L142.379 360.974C123.407 351.24 106.538 337.865 92.7347 321.611C78.9317 305.358 68.4652 286.545 61.9328 266.246C55.4003 245.948 52.93 224.562 54.6627 203.308C56.3954 182.055 62.2972 161.351 72.0312 142.379L23.8741 117.671Z" fill="#004BFF"/>
<path d="M119.134 23.1304C78.2983 43.6925 45.0199 76.6547 24.0688 117.293L72.1773 142.095C87.8906 111.617 112.849 86.8951 143.477 71.4735L119.134 23.1304Z" fill="#FFB347"/>
<path d="M250.281 2.65117C205.12 -4.48201 158.86 2.86496 118.131 23.6391L142.724 71.855C173.27 56.2744 207.965 50.7642 241.836 56.114L250.281 2.65117Z" fill="#985AFE"/>
<path d="M374.693 68.6874C340.115 31.6831 293.659 7.97171 243.407 1.67817L236.681 55.3843C274.37 60.1045 309.212 77.888 335.145 105.641L374.693 68.6874Z" fill="#FF7347"/>
<path d="M430.131 251.665C435.68 217.953 433.171 183.405 422.81 150.848C412.449 118.29 394.53 88.647 370.517 64.3419L332.014 102.382C350.023 120.611 363.463 142.843 371.233 167.261C379.004 191.68 380.886 217.59 376.724 242.875L430.131 251.665Z" fill="#35DCF3"/>
<path d="M408.894 315.795C419.314 295.606 426.49 273.903 430.161 251.483L376.746 242.738C373.993 259.553 368.611 275.83 360.796 290.972L408.894 315.795Z" fill="#4B23CC"/>
</svg>
